<svg width="129" height="46" viewBox="0 0 129 46" fill="none" xmlns="http://www.w3.org/2000/svg">
    <g clip-path="url(#clip0)">
        <path d="M64.9821 24.9983L61.644 16.0225L58.3801 24.9983H64.9821ZM73.958 34.5676H68.617L66.5399 29.0783H56.8964L54.8936 34.5676H49.7009L59.1219 10.3848H64.3145L73.958 34.5676Z" fill="#47728E"/>
        <path d="M78.854 25.4434C78.854 27.2979 79.0765 28.6332 79.5958 29.5233C80.3376 30.7102 81.3761 31.3037 82.7114 31.3037C83.7499 31.3037 84.7143 30.8586 85.4561 29.9684C86.1979 29.0783 86.5688 27.6688 86.5688 25.8885C86.5688 23.8856 86.1979 22.402 85.4561 21.5118C84.7143 20.6217 83.8241 20.1766 82.6372 20.1766C81.5245 20.1766 80.6343 20.6217 79.8925 21.5118C79.2249 22.402 78.854 23.7373 78.854 25.4434ZM91.2422 34.5676H86.9397V31.9713C86.1979 32.9357 85.3819 33.7516 84.4175 34.1967C83.4532 34.716 82.4888 34.9385 81.4503 34.9385C79.4474 34.9385 77.7413 34.1225 76.2577 32.4906C74.7741 30.8586 74.1064 28.6332 74.1064 25.666C74.1064 22.6987 74.7741 20.4733 76.1835 18.9155C77.5929 17.3577 79.3733 16.6159 81.4503 16.6159C83.379 16.6159 85.0852 17.4319 86.4946 19.0639V10.3848H91.0938V34.5676H91.2422Z" fill="#47728E"/>
        <path d="M93.4675 29.5973L98.1409 28.8555C98.3634 29.7457 98.7343 30.4133 99.3278 30.9326C99.9212 31.3777 100.811 31.6002 101.85 31.6002C103.037 31.6002 103.927 31.3777 104.52 30.9326C104.891 30.6358 105.114 30.1908 105.114 29.6715C105.114 29.3006 105.04 29.0039 104.817 28.7813C104.595 28.5588 104.075 28.3363 103.259 28.1879C99.5503 27.3719 97.1766 26.6301 96.138 25.9625C94.7286 24.9981 94.061 23.7371 94.061 22.0309C94.061 20.5473 94.6544 19.212 95.8413 18.1735C97.0282 17.135 98.8827 16.6157 101.405 16.6157C103.779 16.6157 105.559 16.9866 106.746 17.8026C107.933 18.6186 108.749 19.7313 109.12 21.2891L104.743 22.1051C104.52 21.4375 104.224 20.9182 103.704 20.5473C103.185 20.1764 102.443 20.028 101.479 20.028C100.292 20.028 99.402 20.1764 98.8827 20.5473C98.5118 20.7698 98.3634 21.0666 98.3634 21.5116C98.3634 21.8084 98.5118 22.1051 98.8085 22.3276C99.2536 22.6243 100.663 23.0694 103.111 23.6629C105.559 24.2563 107.339 24.9239 108.304 25.7399C109.268 26.5559 109.787 27.7428 109.787 29.1522C109.787 30.7842 109.12 32.1195 107.784 33.3064C106.449 34.4932 104.446 35.0125 101.85 35.0125C99.4762 35.0125 97.5475 34.4932 96.2122 33.5289C94.8028 32.5645 93.9126 31.2293 93.4675 29.5973Z" fill="#47728E"/>
        <path d="M111.048 17.0615H115.944L120.098 29.5239L124.178 17.0615H129L122.843 33.9005L121.73 36.9419C121.359 37.9804 120.914 38.7222 120.543 39.3157C120.173 39.835 119.727 40.28 119.282 40.6509C118.837 41.0218 118.244 41.2444 117.502 41.4669C116.834 41.6895 116.018 41.7636 115.128 41.7636C114.238 41.7636 113.348 41.6895 112.532 41.4669L112.087 37.8321C112.829 37.9804 113.496 38.0546 114.016 38.0546C115.128 38.0546 115.87 37.7579 116.389 37.0903C116.909 36.4226 117.28 35.6808 117.576 34.6423L111.048 17.0615Z" fill="#47728E"/>
        <path d="M22.5509 45.1018C35.0054 45.1018 45.1018 35.0054 45.1018 22.5509C45.1018 10.0964 35.0054 0 22.5509 0C10.0964 0 0 10.0964 0 22.5509C0 35.0054 10.0964 45.1018 22.5509 45.1018Z" fill="#47728E"/>
        <path fill-rule="evenodd" clip-rule="evenodd" d="M28.8563 37.6835L27.5211 36.4224V34.4937C27.5211 34.0486 27.1502 33.6777 26.7051 33.6777C26.26 33.6777 25.8891 34.0486 25.8891 34.4937V36.2741C25.8149 36.3482 25.7407 36.3482 25.6666 36.4224L24.4797 37.906C24.1829 38.2769 24.2571 38.722 24.5538 39.0187C24.9247 39.3155 25.3698 39.2413 25.6666 38.9446L26.0375 38.4995V38.8704C26.0375 39.3155 26.4084 39.6864 26.8534 39.6864C27.2985 39.6864 27.6694 39.3155 27.6694 38.8704V38.5737L27.9662 38.7962C28.2629 39.0929 28.7821 39.0929 29.0789 38.722C29.2272 38.4253 29.2272 37.9802 28.8563 37.6835Z" fill="#F4F7F9"/>
        <path fill-rule="evenodd" clip-rule="evenodd" d="M22.4027 37.6835L21.0674 36.4224V34.4937C21.0674 34.0486 20.6965 33.6777 20.2514 33.6777C19.8063 33.6777 19.4354 34.0486 19.4354 34.4937V36.2741C19.2871 36.3482 19.2129 36.3482 19.1387 36.4224L17.9518 37.906C17.6551 38.2769 17.7293 38.722 18.026 39.0187C18.3969 39.3155 18.842 39.2413 19.1387 38.9446L19.5096 38.4995V38.8704C19.5096 39.3155 19.8805 39.6864 20.3256 39.6864C20.7707 39.6864 21.1416 39.3155 21.1416 38.8704V38.5737L21.4383 38.7962C21.735 39.0929 22.2543 39.0929 22.551 38.722C22.7736 38.4253 22.7736 37.9802 22.4027 37.6835Z" fill="#F4F7F9"/>
        <path fill-rule="evenodd" clip-rule="evenodd" d="M35.0875 20.7707C35.0875 20.7707 35.0133 20.8449 34.9392 20.9191C35.0875 15.133 33.9748 9.71784 33.6039 9.56948C33.0105 9.34694 30.4883 12.0916 30.4883 12.0916C27.5211 10.9789 24.9248 10.6822 22.8477 10.6822C20.7707 10.6822 18.1743 10.9789 15.2071 12.0916C15.2071 12.0916 12.685 9.34694 12.0915 9.56948C11.7206 9.71784 10.6079 15.133 10.7563 20.9191C6.23128 30.9335 13.7235 34.2716 13.7235 34.2716C14.0202 33.7523 14.2428 33.2331 14.3911 32.7138C14.6879 33.0847 15.0588 33.3814 15.4297 33.6782C15.4297 33.7523 15.4297 33.8265 15.5038 33.9007C17.5809 35.4585 20.103 36.0519 22.7735 35.9778C24.999 35.9778 27.2244 35.6069 29.1531 34.4941C29.2272 34.42 29.3014 34.42 29.3756 34.3458C29.4498 34.2716 29.524 34.2716 29.5982 34.1974C30.1174 33.8265 30.6367 33.4556 31.1559 32.9364C31.3043 33.3814 31.4527 33.8265 31.6752 34.2716C31.6752 34.2716 39.7609 30.9335 35.0875 20.7707Z" fill="#F4F7F9"/>
        <path fill-rule="evenodd" clip-rule="evenodd" d="M22.8474 19.8062L20.9929 21.5123L22.8474 23.9603L24.7019 21.5123L22.8474 19.8062Z" fill="#47728E"/>
        <path fill-rule="evenodd" clip-rule="evenodd" d="M29.2272 17.6551C28.8563 17.6551 28.6338 17.3584 28.6338 17.0617C28.6338 16.6908 28.9305 16.4682 29.2272 16.4682C29.5981 16.4682 29.8207 16.7649 29.8207 17.0617C29.8207 17.4326 29.5981 17.6551 29.2272 17.6551ZM28.4112 15.4297C27.2244 15.4297 26.26 16.394 26.26 17.5809C26.26 18.7678 27.2244 19.7322 28.4112 19.7322C29.5981 19.7322 30.5625 18.7678 30.5625 17.5809C30.5625 16.394 29.5981 15.4297 28.4112 15.4297Z" fill="#47728E"/>
        <path fill-rule="evenodd" clip-rule="evenodd" d="M18.1743 17.5804C17.8034 17.5804 17.5808 17.2836 17.5808 16.9869C17.5808 16.616 17.8775 16.3935 18.1743 16.3935C18.5452 16.3935 18.7677 16.6902 18.7677 16.9869C18.7677 17.2836 18.471 17.5804 18.1743 17.5804ZM17.3583 15.2808C16.1714 15.2808 15.207 16.2451 15.207 17.432C15.207 18.6189 16.1714 19.5832 17.3583 19.5832C18.5452 19.5832 19.5095 18.6189 19.5095 17.432C19.5095 16.2451 18.5452 15.2808 17.3583 15.2808Z" fill="#47728E"/>
        <g clip-path="url(#clip1)">
            <path d="M64.9821 24.9983L61.644 16.0225L58.3801 24.9983H64.9821ZM73.958 34.5676H68.617L66.5399 29.0783H56.8964L54.8936 34.5676H49.7009L59.1219 10.3848H64.3145L73.958 34.5676Z" fill="black"/>
            <path d="M78.854 25.4434C78.854 27.2979 79.0765 28.6332 79.5958 29.5233C80.3376 30.7102 81.3761 31.3037 82.7114 31.3037C83.7499 31.3037 84.7143 30.8586 85.4561 29.9684C86.1979 29.0783 86.5688 27.6688 86.5688 25.8885C86.5688 23.8856 86.1979 22.402 85.4561 21.5118C84.7143 20.6217 83.8241 20.1766 82.6372 20.1766C81.5245 20.1766 80.6343 20.6217 79.8925 21.5118C79.2249 22.402 78.854 23.7373 78.854 25.4434ZM91.2422 34.5676H86.9397V31.9713C86.1979 32.9357 85.3819 33.7516 84.4175 34.1967C83.4532 34.716 82.4888 34.9385 81.4503 34.9385C79.4474 34.9385 77.7413 34.1225 76.2577 32.4906C74.7741 30.8586 74.1064 28.6332 74.1064 25.666C74.1064 22.6987 74.7741 20.4733 76.1835 18.9155C77.5929 17.3577 79.3733 16.6159 81.4503 16.6159C83.379 16.6159 85.0852 17.4319 86.4946 19.0639V10.3848H91.0938V34.5676H91.2422Z" fill="black"/>
            <path d="M93.4675 29.5973L98.1409 28.8555C98.3634 29.7457 98.7343 30.4133 99.3278 30.9326C99.9212 31.3777 100.811 31.6002 101.85 31.6002C103.037 31.6002 103.927 31.3777 104.52 30.9326C104.891 30.6358 105.114 30.1908 105.114 29.6715C105.114 29.3006 105.04 29.0039 104.817 28.7813C104.595 28.5588 104.075 28.3363 103.259 28.1879C99.5503 27.3719 97.1766 26.6301 96.138 25.9625C94.7286 24.9981 94.061 23.7371 94.061 22.0309C94.061 20.5473 94.6544 19.212 95.8413 18.1735C97.0282 17.135 98.8827 16.6157 101.405 16.6157C103.779 16.6157 105.559 16.9866 106.746 17.8026C107.933 18.6186 108.749 19.7313 109.12 21.2891L104.743 22.1051C104.52 21.4375 104.224 20.9182 103.704 20.5473C103.185 20.1764 102.443 20.028 101.479 20.028C100.292 20.028 99.402 20.1764 98.8827 20.5473C98.5118 20.7698 98.3634 21.0666 98.3634 21.5116C98.3634 21.8084 98.5118 22.1051 98.8085 22.3276C99.2536 22.6243 100.663 23.0694 103.111 23.6629C105.559 24.2563 107.339 24.9239 108.304 25.7399C109.268 26.5559 109.787 27.7428 109.787 29.1522C109.787 30.7842 109.12 32.1195 107.784 33.3064C106.449 34.4932 104.446 35.0125 101.85 35.0125C99.4762 35.0125 97.5475 34.4932 96.2122 33.5289C94.8028 32.5645 93.9126 31.2293 93.4675 29.5973Z" fill="black"/>
            <path d="M111.048 17.0615H115.944L120.098 29.5239L124.178 17.0615H129L122.843 33.9005L121.73 36.9419C121.359 37.9804 120.914 38.7222 120.543 39.3157C120.173 39.835 119.727 40.28 119.282 40.6509C118.837 41.0218 118.244 41.2444 117.502 41.4669C116.834 41.6895 116.018 41.7636 115.128 41.7636C114.238 41.7636 113.348 41.6895 112.532 41.4669L112.087 37.8321C112.829 37.9804 113.496 38.0546 114.016 38.0546C115.128 38.0546 115.87 37.7579 116.389 37.0903C116.909 36.4226 117.28 35.6808 117.576 34.6423L111.048 17.0615Z" fill="black"/>
            <path d="M22.5509 45.1018C35.0054 45.1018 45.1018 35.0054 45.1018 22.5509C45.1018 10.0964 35.0054 0 22.5509 0C10.0964 0 0 10.0964 0 22.5509C0 35.0054 10.0964 45.1018 22.5509 45.1018Z" fill="#165FED"/>
            <path d="M22.5509 45.1018C35.0054 45.1018 45.1018 35.0054 45.1018 22.5509C45.1018 10.0964 35.0054 0 22.5509 0C10.0964 0 0 10.0964 0 22.5509C0 35.0054 10.0964 45.1018 22.5509 45.1018Z" fill="#3E4FEA"/>
            <path fill-rule="evenodd" clip-rule="evenodd" d="M28.8563 37.6835L27.5211 36.4224V34.4937C27.5211 34.0486 27.1502 33.6777 26.7051 33.6777C26.26 33.6777 25.8891 34.0486 25.8891 34.4937V36.2741C25.8149 36.3482 25.7407 36.3482 25.6666 36.4224L24.4797 37.906C24.1829 38.2769 24.2571 38.722 24.5538 39.0187C24.9247 39.3155 25.3698 39.2413 25.6666 38.9446L26.0375 38.4995V38.8704C26.0375 39.3155 26.4084 39.6864 26.8534 39.6864C27.2985 39.6864 27.6694 39.3155 27.6694 38.8704V38.5737L27.9662 38.7962C28.2629 39.0929 28.7821 39.0929 29.0789 38.722C29.2272 38.4253 29.2272 37.9802 28.8563 37.6835Z" fill="#F4F7F9"/>
            <path fill-rule="evenodd" clip-rule="evenodd" d="M22.4027 37.6835L21.0674 36.4224V34.4937C21.0674 34.0486 20.6965 33.6777 20.2514 33.6777C19.8063 33.6777 19.4354 34.0486 19.4354 34.4937V36.2741C19.2871 36.3482 19.2129 36.3482 19.1387 36.4224L17.9518 37.906C17.6551 38.2769 17.7293 38.722 18.026 39.0187C18.3969 39.3155 18.842 39.2413 19.1387 38.9446L19.5096 38.4995V38.8704C19.5096 39.3155 19.8805 39.6864 20.3256 39.6864C20.7707 39.6864 21.1416 39.3155 21.1416 38.8704V38.5737L21.4383 38.7962C21.735 39.0929 22.2543 39.0929 22.551 38.722C22.7736 38.4253 22.7736 37.9802 22.4027 37.6835Z" fill="#F4F7F9"/>
            <path fill-rule="evenodd" clip-rule="evenodd" d="M35.0875 20.7707C35.0875 20.7707 35.0133 20.8449 34.9392 20.9191C35.0875 15.133 33.9748 9.71784 33.6039 9.56948C33.0105 9.34694 30.4883 12.0916 30.4883 12.0916C27.5211 10.9789 24.9248 10.6822 22.8477 10.6822C20.7707 10.6822 18.1743 10.9789 15.2071 12.0916C15.2071 12.0916 12.685 9.34694 12.0915 9.56948C11.7206 9.71784 10.6079 15.133 10.7563 20.9191C6.23128 30.9335 13.7235 34.2716 13.7235 34.2716C14.0202 33.7523 14.2428 33.2331 14.3911 32.7138C14.6879 33.0847 15.0588 33.3814 15.4297 33.6782C15.4297 33.7523 15.4297 33.8265 15.5038 33.9007C17.5809 35.4585 20.103 36.0519 22.7735 35.9778C24.999 35.9778 27.2244 35.6069 29.1531 34.4941C29.2272 34.42 29.3014 34.42 29.3756 34.3458C29.4498 34.2716 29.524 34.2716 29.5982 34.1974C30.1174 33.8265 30.6367 33.4556 31.1559 32.9364C31.3043 33.3814 31.4527 33.8265 31.6752 34.2716C31.6752 34.2716 39.7609 30.9335 35.0875 20.7707Z" fill="#F4F7F9"/>
            <path fill-rule="evenodd" clip-rule="evenodd" d="M22.8474 19.8062L20.9929 21.5123L22.8474 23.9603L24.7019 21.5123L22.8474 19.8062Z" fill="#3E4FEA"/>
            <path fill-rule="evenodd" clip-rule="evenodd" d="M29.2272 17.6551C28.8563 17.6551 28.6338 17.3584 28.6338 17.0617C28.6338 16.6908 28.9305 16.4682 29.2272 16.4682C29.5981 16.4682 29.8207 16.7649 29.8207 17.0617C29.8207 17.4326 29.5981 17.6551 29.2272 17.6551ZM28.4112 15.4297C27.2244 15.4297 26.26 16.394 26.26 17.5809C26.26 18.7678 27.2244 19.7322 28.4112 19.7322C29.5981 19.7322 30.5625 18.7678 30.5625 17.5809C30.5625 16.394 29.5981 15.4297 28.4112 15.4297Z" fill="#3E4FEA"/>
            <path fill-rule="evenodd" clip-rule="evenodd" d="M18.1743 17.5804C17.8034 17.5804 17.5808 17.2836 17.5808 16.9869C17.5808 16.616 17.8775 16.3935 18.1743 16.3935C18.5452 16.3935 18.7677 16.6902 18.7677 16.9869C18.7677 17.2836 18.471 17.5804 18.1743 17.5804ZM17.3583 15.2808C16.1714 15.2808 15.207 16.2451 15.207 17.432C15.207 18.6189 16.1714 19.5832 17.3583 19.5832C18.5452 19.5832 19.5095 18.6189 19.5095 17.432C19.5095 16.2451 18.5452 15.2808 17.3583 15.2808Z" fill="#3E4FEA"/>
        </g>
    </g>
    <defs>
        <clipPath id="clip0">
            <rect width="129" height="45.1018" fill="white"/>
        </clipPath>
        <clipPath id="clip1">
            <rect width="129" height="45.1018" fill="white"/>
        </clipPath>
    </defs>
</svg>
